<?xml version="1.0" ?><svg id="Layer_2" style="enable-background:new 0 0 32 32;" version="1.1" viewBox="0 0 32 32" xml:space="preserve" xmlns="http://www.w3.org/2000/svg" xmlns:xlink="http://www.w3.org/1999/xlink"><path d="M27.66699,1.43652H4.33301C2.21973,1.43652,0.5,3.15625,0.5,5.27002V20.7959c0,2.11377,1.71973,3.8335,3.83301,3.8335  h1.6377c0.45898,0,0.83301,0.37354,0.83301,0.83301v2.43213c0,1.04248,0.58594,1.9668,1.5293,2.41162  c0.36816,0.17383,0.75781,0.25879,1.14355,0.25879c0.60352,0,1.19824-0.20801,1.68848-0.61182l6.06055-4.98975  c0.03516-0.0293,0.06934-0.06006,0.10254-0.09229c0.15723-0.15576,0.36523-0.2417,0.58691-0.2417h9.75195  c2.11328,0,3.83301-1.71973,3.83301-3.8335V5.27002C31.5,3.15625,29.78027,1.43652,27.66699,1.43652z M28.5,20.7959  c0,0.45947-0.37402,0.8335-0.83301,0.8335h-9.75195c-0.99121,0-1.92676,0.37451-2.64258,1.05615l-5.46875,4.50244V25.4624  c0-2.11328-1.71973-3.83301-3.83301-3.83301h-1.6377c-0.45898,0-0.83301-0.37402-0.83301-0.8335V5.27002  c0-0.45947,0.37402-0.8335,0.83301-0.8335h23.33398c0.45898,0,0.83301,0.37402,0.83301,0.8335V20.7959z"/></svg>