<?xml version="1.0" ?><svg data-name="Layer 4" id="Layer_4" viewBox="0 0 128 128" xmlns="http://www.w3.org/2000/svg"><defs><style>.cls-1{fill:#231f20;}</style></defs><path class="cls-1" d="M64,45.45A18.55,18.55,0,1,1,45.45,64,18.57,18.57,0,0,1,64,45.45m0-10A28.55,28.55,0,1,0,92.55,64,28.55,28.55,0,0,0,64,35.45Z"/><path class="cls-1" d="M70.48,26v4.75l6.18,2.56A33,33,0,0,1,84.2,37.7l5.31,4.09,4.13-2.39,6.48,11.23L96,53l.87,6.62a32,32,0,0,1,0,8.74L96,75l4.12,2.38L93.64,88.6l-4.13-2.39L84.2,90.3a33,33,0,0,1-7.54,4.36l-6.18,2.56V102h-13V97.22l-6.18-2.56A33,33,0,0,1,43.8,90.3l-5.31-4.09L34.36,88.6,27.88,77.37,32,75l-.87-6.62a32,32,0,0,1,0-8.74L32,53l-4.12-2.38L34.36,39.4l4.13,2.39L43.8,37.7a33,33,0,0,1,7.54-4.36l6.18-2.56V26h13m5-10h-23l-5,5V24.1a42.77,42.77,0,0,0-9.82,5.68L35,28.24,28.2,30.07,16.72,50c.71,2.67,1.11,4.16,1.83,6.83l2.66,1.54a42.49,42.49,0,0,0,0,11.34l-2.66,1.54c-.72,2.67-1.12,4.16-1.83,6.83L28.2,97.93,35,99.76l2.67-1.54a42.77,42.77,0,0,0,9.82,5.68V107l5,5h23l5-5V103.9a42.77,42.77,0,0,0,9.82-5.68L93,99.76l6.83-1.83L111.28,78c-.71-2.67-1.11-4.16-1.83-6.83l-2.66-1.54a42.49,42.49,0,0,0,0-11.34l2.66-1.54c.72-2.67,1.12-4.16,1.83-6.83L99.8,30.07,93,28.24,90.3,29.78a42.77,42.77,0,0,0-9.82-5.68V21l-5-5Z"/></svg>